<?xml version="1.0" encoding="utf-8"?>
<!-- Generator: Adobe Illustrator 28.0.0, SVG Export Plug-In . SVG Version: 6.00 Build 0)  -->
<svg version="1.1" id="Capa_1" xmlns="http://www.w3.org/2000/svg" xmlns:xlink="http://www.w3.org/1999/xlink" x="0px" y="0px"
	 viewBox="0 0 242.1 35.6" style="enable-background:new 0 0 242.1 35.6;" xml:space="preserve">
<style type="text/css">
	.st0{fill:#9B904E;}
</style>
<g>
	<path class="st0" d="M62.9,5c-0.9,0.4-1.7,0.9-2.5,1.5c-0.7,0.6-1.4,1.3-2,2.1c-0.6,0.8-1.1,1.6-1.6,2.5c-0.5,0.9-0.9,1.8-1.2,2.7
		c-0.3,0.7-0.5,1.6-0.8,2.5c-0.3,1-0.5,1.9-0.6,2.9c-0.2,1-0.3,2-0.3,3c0,1,0,1.9,0.2,2.8c0.1,0.4,0.2,0.8,0.4,1.2
		c0.2,0.4,0.4,0.7,0.7,0.9c0.3,0.1,0.4,0.3,0.3,0.4c-0.1,0.2-0.4,0.2-0.7,0.2c-1.2,0.1-2.1-0.2-2.9-0.8c-0.7-0.6-1.2-1.3-1.6-2.2
		c-0.3-0.9-0.5-1.9-0.5-3s0.1-2.2,0.3-3.2c0.4-1.8,1.1-3.6,2-5.3c1-1.7,2.1-3.3,3.4-4.7c-1.3,0.9-2.5,2-3.6,3.2
		c-1.1,1.2-2.1,2.5-3,3.9c-0.9,1.4-1.7,2.9-2.3,4.4c-0.6,1.6-1.1,3.2-1.5,4.8c0,0.2-0.1,0.3-0.2,0.4c-0.1,0.1-0.2,0.1-0.3,0.1
		c-0.1,0-0.2-0.1-0.3-0.2c-0.1-0.1-0.2-0.2-0.3-0.4c-1-2-1.6-4.1-1.7-6.4c-0.1-2.3,0-4.5,0.4-6.9c-0.9,2.1-1.6,3.9-2.3,5.3
		c-0.6,1.4-1.1,2.6-1.6,3.6c-0.5,1-0.9,1.8-1.3,2.5c-0.4,0.7-0.8,1.3-1.2,1.8c-0.4,0.5-0.8,1-1.3,1.5c-0.4,0.5-0.9,0.9-1.5,1.2
		c-0.5,0.3-1.1,0.6-1.7,0.8c-0.6,0.2-1.2,0.3-1.9,0.3c-1,0-1.9-0.3-2.6-0.7c-0.7-0.4-1.2-1-1.6-1.7c-0.4-0.7-0.6-1.5-0.8-2.4
		c-0.1-0.9-0.1-1.8-0.1-2.7c0.1-0.9,0.3-1.8,0.6-2.6c0.3-0.8,0.6-1.6,1.1-2.2c0.3-0.5,0.8-1,1.2-1.4c0.5-0.5,1-0.9,1.5-1.2
		c-0.1-0.6-0.1-1.3,0-1.9c0-0.6,0.1-1.2,0.2-1.8c0.2-1.1,0.6-2.1,1.2-3.1C31.2,5.8,32,5,33,4.4c1.1-0.6,2.2-1,3.4-1
		c1.2,0,2.4,0.2,3.5,0.5c0.7,0.2,1.5,0.5,2.2,0.7c0.7,0.2,1.5,0.4,2.3,0.5c0.4-0.3,0.8-0.5,1.3-0.7c0.5-0.2,0.9-0.3,1.4-0.3
		c0.3,0,0.5,0.1,0.7,0.2c0.2,0.1,0.2,0.2,0.2,0.4c0,0.1-0.1,0.3-0.2,0.4c-0.2,0.1-0.4,0.3-0.7,0.4c-0.3,0.3-0.6,0.6-0.8,0.9
		c-0.2,0.4-0.4,0.8-0.5,1.2c-0.1,0.4-0.2,0.8-0.3,1.3s-0.1,0.8-0.2,1.2c-0.1,1.2-0.2,2.5-0.2,3.7c0,1.2,0.2,2.5,0.4,3.8
		c0.4-0.7,0.8-1.4,1.2-2.1c0.4-0.7,0.8-1.3,1.3-1.9c1.2-1.6,2.6-3.1,4.1-4.5c1.5-1.3,3.2-2.4,5.1-3.2c0.3-0.1,0.7-0.3,1.2-0.4
		s0.9-0.3,1.4-0.4c0.5-0.1,1-0.2,1.4-0.3c0.5-0.1,0.9-0.1,1.3-0.2c0.2,0,0.3,0,0.3,0.1C63.1,4.9,63,5,62.9,5z M42.2,7.7
		c0.2-0.3,0.3-0.5,0.5-0.8c0.2-0.3,0.4-0.5,0.7-0.8c-1.1,0-2.2-0.1-3.4-0.2c-1.1-0.1-2.3,0-3.5,0.2c-0.8,0.2-1.5,0.5-2.3,0.9
		c-0.8,0.4-1.5,0.9-2.1,1.6S31,10,30.7,10.7c-0.3,0.8-0.5,1.5-0.3,2.4c0.8-0.3,1.7-0.5,2.5-0.4c0.5,0,1,0.1,1.5,0.4
		c0.5,0.2,0.9,0.5,1.3,0.9c0.1,0.1,0.2,0.3,0.2,0.4c0,0.1-0.1,0.1-0.3,0.1c-0.5-0.1-1-0.1-1.5,0c-1,0.1-2,0.4-2.8,0.8
		c0.5,0.6,1.1,0.9,1.8,1.1c0.7,0.2,1.5,0.2,2.3,0.1c0.1,0,0.1,0,0.1,0.1c0,0.1,0,0.1-0.1,0.2c0,0.1-0.1,0.2-0.3,0.4
		c-0.3,0.3-0.7,0.6-1.3,0.8c-0.6,0.1-1.1,0.1-1.7-0.1c-0.6-0.2-1.1-0.5-1.4-0.9c-0.1-0.1-0.3-0.3-0.4-0.4c-0.1-0.1-0.2-0.3-0.3-0.5
		c-1.1,0.7-1.9,1.6-2.6,2.7c-0.3,0.5-0.6,1.1-0.9,1.9c-0.3,0.7-0.4,1.4-0.5,2.2c-0.1,0.7,0,1.4,0.2,2.1s0.6,1.3,1.1,1.8
		c0.4,0.3,0.8,0.5,1.2,0.7c0.4,0.1,0.9,0.2,1.4,0.1c0.5,0,0.9-0.2,1.4-0.3c0.4-0.2,0.8-0.4,1.2-0.7c0.9-0.7,1.6-1.6,2.2-2.6
		c0.6-1,1.1-2,1.6-3c0.5-1.1,0.9-2.1,1.4-3.3c0.4-1.1,0.9-2.2,1.3-3.3c0.4-1.1,0.9-2.2,1.4-3.2S41.5,8.7,42.2,7.7z"/>
	<path class="st0" d="M73.4,21.3c0.1-0.2,0.2-0.3,0.3-0.4c0.1-0.1,0.2-0.1,0.3,0c0.1,0,0.2,0.1,0.2,0.2c0.1,0.1,0.1,0.3,0,0.5
		c-0.6,1.7-1.5,3.1-2.6,4.1c-1.1,1-2.3,1.5-3.5,1.5c-0.9,0-1.5-0.2-2-0.6s-0.7-1.1-0.8-2c-0.5,0.7-1.2,1.3-1.9,1.8
		c-0.7,0.6-1.6,0.8-2.5,0.8c-1,0-1.8-0.3-2.4-1c-0.6-0.7-0.9-1.5-1-2.6c-0.1-1,0-2.2,0.4-3.4c0.4-1.2,1-2.3,1.8-3.4s1.9-1.9,3.2-2.6
		c1.3-0.7,2.8-1,4.6-1c1.2,0,2.2,0.2,2.9,0.5c0.7,0.3,1.3,0.8,1.7,1.5c-0.5,1.4-0.9,2.6-1.3,3.7c-0.2,0.5-0.3,1-0.5,1.4
		c-0.2,0.5-0.3,0.9-0.4,1.3c-0.1,0.4-0.3,0.7-0.4,1c-0.1,0.3-0.2,0.5-0.2,0.6c-0.3,0.8-0.4,1.4-0.3,1.8c0.1,0.4,0.3,0.5,0.6,0.5
		c0.2,0,0.4-0.1,0.7-0.2c0.3-0.1,0.6-0.4,1-0.7c0.3-0.3,0.7-0.8,1.1-1.4C72.7,22.8,73.1,22.1,73.4,21.3z M68.1,14.9
		c0-0.1-0.1-0.2-0.3-0.4s-0.4-0.2-0.7-0.2c-0.7,0-1.3,0.3-1.9,0.8c-0.6,0.6-1.2,1.3-1.7,2.1C63,18.1,62.6,19,62.2,20
		c-0.4,1-0.6,1.9-0.7,2.8c-0.1,0.8-0.2,1.6-0.1,2.1c0.1,0.6,0.3,0.8,0.8,0.8c0.3,0,0.5-0.1,0.8-0.2c0.3-0.2,0.5-0.4,0.8-0.7
		c0.2-0.3,0.5-0.6,0.7-0.9c0.2-0.4,0.4-0.7,0.6-1.1c0.4-0.8,0.9-1.8,1.3-2.9L68.1,14.9z"/>
	<path class="st0" d="M83.9,21.3c0.1-0.2,0.2-0.3,0.3-0.4c0.1-0.1,0.2-0.1,0.3,0c0.1,0,0.2,0.1,0.2,0.2c0,0.1,0,0.3,0,0.5
		c-0.6,1.7-1.5,3.1-2.6,4.1c-1.1,1-2.3,1.5-3.5,1.5c-0.6,0-1.1-0.1-1.6-0.3c-0.4-0.2-0.8-0.6-1-1.1c-0.2-0.5-0.3-1.1-0.2-1.8
		c0-0.7,0.2-1.6,0.6-2.6l1.5-4.3c0.1-0.4,0.2-0.8,0.2-1.2c0-0.4-0.1-0.8-0.3-1.1c-0.1-0.2-0.2-0.3-0.3-0.4c-0.1-0.1-0.2-0.2-0.3-0.4
		l-0.3-0.3c-0.1,0.4-0.3,0.9-0.5,1.6c-0.2,0.7-0.4,1.4-0.7,2.1c-0.2,0.8-0.5,1.5-0.8,2.3c-0.3,0.8-0.5,1.4-0.7,2
		c-0.1,0.3-0.2,0.5-0.4,0.6c-0.1,0.1-0.3,0.1-0.3,0.1c-0.1,0-0.2-0.2-0.2-0.3c0-0.2,0-0.4,0.1-0.6c0.6-1.5,1-2.9,1.4-4
		c0.4-1.2,0.7-2.1,0.9-2.9c0.3-0.9,0.5-1.7,0.6-2.4c0.6,0.4,1.2,0.9,1.8,1.3c0.5,0.4,1,0.8,1.5,1.2c0.5,0.4,0.9,0.9,1.2,1.3
		c0.4,0.6,0.6,1.2,0.7,1.7c0.1,0.5,0,1.1-0.3,1.9l-1.4,4.1c-0.3,0.8-0.4,1.4-0.3,1.8c0.1,0.4,0.3,0.5,0.6,0.5c0.2,0,0.4-0.1,0.7-0.2
		s0.6-0.4,1-0.7c0.3-0.3,0.7-0.8,1.1-1.4C83.2,22.8,83.6,22.1,83.9,21.3z"/>
	<path class="st0" d="M91.5,21.3c0.1-0.2,0.2-0.3,0.3-0.4c0.1-0.1,0.2-0.1,0.3,0c0.1,0,0.2,0.1,0.2,0.2c0,0.1,0,0.3,0,0.5
		c-0.6,1.7-1.5,3.1-2.6,4.1c-1.1,1-2.3,1.5-3.5,1.5c-0.6,0-1.1-0.1-1.6-0.3c-0.4-0.2-0.8-0.6-1-1.1c-0.2-0.5-0.3-1.1-0.2-1.8
		c0-0.7,0.2-1.6,0.6-2.6l2-5.8c0.3-0.7,0.7-1.2,1.2-1.6c0.6-0.4,1.2-0.6,1.9-0.6h1.8c-0.6,1.6-1.1,3-1.5,4.4
		c-0.2,0.6-0.4,1.2-0.6,1.7c-0.2,0.6-0.4,1.1-0.6,1.7c-0.2,0.5-0.3,1-0.5,1.4s-0.2,0.7-0.3,0.9c-0.3,0.8-0.4,1.4-0.3,1.8
		c0.1,0.4,0.3,0.5,0.6,0.5c0.2,0,0.4-0.1,0.7-0.2c0.3-0.1,0.6-0.4,1-0.7c0.4-0.3,0.7-0.8,1.1-1.4C90.8,22.8,91.1,22.1,91.5,21.3z
		 M94.8,6C95,6,95.2,6,95.3,6.2c0.1,0.2,0.2,0.4,0.1,0.6l-0.5,1.5c-0.2,0.5-0.4,0.9-0.8,1.2c-0.3,0.3-0.7,0.5-1.2,0.6l-5.2,0.8
		c-0.2,0-0.4,0-0.7-0.1c-0.2-0.1-0.4-0.2-0.5-0.4c-0.1-0.2-0.2-0.3-0.3-0.6c0-0.2,0-0.4,0-0.7L94.8,6z"/>
	<path class="st0" d="M107.2,21.3c0.1-0.2,0.2-0.3,0.3-0.4c0.1-0.1,0.2-0.1,0.3,0c0.1,0,0.2,0.1,0.2,0.2c0.1,0.1,0.1,0.3,0,0.5
		c-0.6,1.7-1.5,3.1-2.6,4.1c-1.1,1-2.3,1.5-3.5,1.5c-0.9,0-1.5-0.2-2-0.6s-0.7-1.1-0.8-2c-0.5,0.7-1.2,1.3-1.9,1.8
		c-0.7,0.6-1.6,0.8-2.5,0.8c-1,0-1.8-0.3-2.4-1c-0.6-0.7-0.9-1.5-1-2.6c-0.1-1,0-2.2,0.4-3.4c0.4-1.2,1-2.3,1.8-3.4s1.9-1.9,3.2-2.6
		c1.3-0.7,2.8-1,4.6-1c1.2,0,2.2,0.2,2.9,0.5c0.7,0.3,1.3,0.8,1.7,1.5c-0.5,1.4-0.9,2.6-1.3,3.7c-0.2,0.5-0.3,1-0.5,1.4
		c-0.2,0.5-0.3,0.9-0.4,1.3c-0.1,0.4-0.3,0.7-0.4,1c-0.1,0.3-0.2,0.5-0.2,0.6c-0.3,0.8-0.4,1.4-0.3,1.8c0.1,0.4,0.3,0.5,0.6,0.5
		c0.2,0,0.4-0.1,0.7-0.2c0.3-0.1,0.6-0.4,1-0.7c0.3-0.3,0.7-0.8,1.1-1.4C106.6,22.8,106.9,22.1,107.2,21.3z M102,14.9
		c0-0.1-0.1-0.2-0.3-0.4s-0.4-0.2-0.7-0.2c-0.7,0-1.3,0.3-1.9,0.8c-0.6,0.6-1.2,1.3-1.7,2.1c-0.5,0.8-0.9,1.8-1.3,2.8
		c-0.4,1-0.6,1.9-0.7,2.8c-0.1,0.8-0.2,1.6-0.1,2.1c0.1,0.6,0.3,0.8,0.8,0.8c0.3,0,0.5-0.1,0.8-0.2c0.3-0.2,0.5-0.4,0.8-0.7
		c0.2-0.3,0.5-0.6,0.7-0.9c0.2-0.4,0.4-0.7,0.6-1.1c0.4-0.8,0.9-1.8,1.3-2.9L102,14.9z"/>
	<path class="st0" d="M130.3,13.3c-0.6,1.6-1.1,3.2-1.7,4.9c-0.5,1.4-0.9,2.8-1.5,4.3c-0.5,1.5-1,2.8-1.4,4c0.7-0.1,1.3-0.4,1.9-0.7
		c0.6-0.3,1.1-0.8,1.6-1.2c0.5-0.5,0.9-1,1.3-1.5c0.4-0.6,0.7-1.1,0.9-1.7c0.1-0.2,0.2-0.3,0.3-0.4c0.1-0.1,0.2-0.1,0.3,0
		s0.2,0.1,0.2,0.2s0,0.3,0,0.5c-0.2,0.6-0.5,1.2-0.9,1.9c-0.4,0.6-0.9,1.2-1.4,1.8c-0.6,0.6-1.2,1-2,1.5c-0.8,0.4-1.6,0.7-2.6,0.9
		c-0.2,0.5-0.3,0.9-0.4,1.2s-0.2,0.5-0.2,0.5c-0.8,1.9-1.7,3.3-3,4.1c-1.2,0.8-2.7,1.2-4.4,1.2c-1.3,0-2.2-0.3-2.9-0.9
		c-0.6-0.6-1-1.4-1-2.2c0-0.8,0.2-1.7,0.8-2.6c0.6-0.9,1.4-1.5,2.6-2c0.2-0.1,0.3-0.1,0.5-0.2c0.1-0.1,0.3-0.1,0.5-0.2
		c-0.9-0.4-1.5-1.1-1.7-2.3s0-2.7,0.6-4.8c0.2-0.8,0.5-1.5,0.9-2.3c0.3-0.7,0.7-1.4,1.2-2c0.4-0.6,1-1,1.5-1.4
		c0.6-0.4,1.2-0.5,1.9-0.5h1c-0.7,1.4-1.3,2.9-1.9,4.3c-0.6,1.5-1.1,2.8-1.4,4s-0.5,2.2-0.6,2.9c0,0.8,0.1,1.1,0.5,1.1
		c0.5,0,0.9-0.2,1.3-0.6s0.8-0.9,1.2-1.6c0.5-0.8,0.8-1.5,1.1-2c0.2-0.5,0.4-1.1,0.6-1.6c0.1-0.3,0.2-0.6,0.3-1
		c0.1-0.4,0.3-0.8,0.4-1.2c0.1-0.4,0.3-0.8,0.4-1.2c0.1-0.4,0.2-0.7,0.3-0.9c0.3-0.7,0.7-1.2,1.2-1.6s1.2-0.6,1.9-0.6H130.3z
		 M117.5,33.7c0.5,0,1-0.2,1.4-0.6c0.4-0.4,0.8-0.9,1.2-1.5c0.4-0.7,0.7-1.4,1-2.3c0.3-0.9,0.6-1.8,1-2.7c-0.8,0-1.5,0.2-2.2,0.5
		c-0.7,0.4-1.2,0.8-1.7,1.3c-0.5,0.5-0.9,1.1-1.2,1.7c-0.3,0.6-0.5,1.2-0.6,1.7c-0.1,0.5,0,1,0.1,1.3
		C116.8,33.5,117,33.7,117.5,33.7z"/>
	<path class="st0" d="M158.8,17.9c-0.3,0-0.5-0.1-0.8-0.1c-0.3,0-0.5-0.1-0.8-0.2c-0.5,0.1-0.8,0.4-1.1,0.8
		c-0.3,0.4-0.5,0.8-0.7,1.2c-0.2,0.5-0.4,0.9-0.6,1.4c-0.2,0.5-0.4,1-0.6,1.4c-0.4,0.9-0.9,1.7-1.4,2.5s-1.2,1.5-1.9,2.1
		c-0.9,0.7-1.9,1.2-3.1,1.5s-2.3,0.2-3.4-0.3s-2-1.2-2.6-2.2c-0.6-1-1-2.1-1.2-3.2c-0.1-1-0.1-2.1,0.1-3.1c0.2-1,0.6-2,1-3
		c0.5-1,1.1-2,1.9-2.8c0.8-0.8,1.8-1.4,2.9-1.7c1.2-0.4,2.3-0.3,3.4,0.1c0.2,0.1,0.4,0.2,0.7,0.4c0.2,0.2,0.4,0.4,0.5,0.5
		c0.1,0.2,0.3,0.4,0.3,0.6c0.1,0.2,0.1,0.3,0.1,0.4c0,0.1-0.1,0.1-0.2,0.1c-0.1,0-0.2,0-0.4-0.1c-0.2,0-0.3-0.1-0.5-0.1
		c-0.2,0-0.4-0.1-0.6-0.1c-0.9-0.1-1.8,0-2.6,0.2c-0.8,0.3-1.6,0.7-2.4,1.3c-0.9,0.7-1.7,1.5-2.2,2.5c-0.6,1-0.9,2.1-1.1,3.2
		c-0.1,0.6-0.1,1.2,0,1.9c0.1,0.7,0.2,1.3,0.5,1.9c0.3,0.6,0.7,1.1,1.1,1.5c0.5,0.4,1.1,0.7,1.8,0.7s1.4-0.1,1.9-0.5
		c0.5-0.4,1-0.9,1.3-1.4c0.5-0.7,0.9-1.5,1.2-2.3c0.4-0.8,0.7-1.5,1.1-2.3c0.3-0.5,0.6-1.1,0.9-1.6c0.4-0.5,0.8-1,1.2-1.3
		c0.3-0.3,0.7-0.5,1.1-0.6c0.4-0.1,0.8-0.3,1.2-0.4c-0.7-0.5-1.2-1-1.5-1.7c-0.3-0.7-0.6-1.4-0.8-2.1c-1-0.4-1.8-0.9-2.5-1.7
		c-0.7-0.7-1.1-1.7-1.3-2.8c0-0.4,0-0.7,0-1.1c0.1-0.4,0.2-0.7,0.4-1.1c0.2-0.3,0.4-0.6,0.7-0.9c0.3-0.3,0.6-0.5,1-0.6
		c0,0,0.1,0,0.2-0.1c0.1,0,0.2-0.1,0.3-0.1c0.1,0,0.2,0,0.3,0c0.1,0,0.1,0.1,0,0.2c-0.2,0.3-0.3,0.7-0.5,1.1
		c-0.1,0.4-0.2,0.8-0.3,1.2c-0.1,0.4-0.1,0.8,0,1.2c0.1,0.4,0.2,0.8,0.4,1.1c0.3,0.4,0.6,0.8,1.1,1.2c0.1-1.1,0.5-2.1,1.1-3
		c0.6-0.9,1.4-1.7,2.4-2.3c1.7-1.2,3.6-1.7,5.7-1.5c0.5,0,0.9,0.1,1.4,0.3s0.9,0.3,1.3,0.6c0.4,0.3,0.8,0.6,1.1,0.9
		c0.3,0.4,0.5,0.8,0.6,1.3c0.2,0.8,0.1,1.5-0.3,2.2c-0.4,0.7-0.9,1.2-1.5,1.7c-1.2,1.1-2.6,1.9-4.2,2.3c-1.5,0.4-3.2,0.6-4.9,0.5
		c0,0.2,0,0.5,0,0.8c0,0.3,0.1,0.6,0.2,0.9c0.1,0.3,0.2,0.5,0.4,0.7c0.2,0.2,0.4,0.3,0.7,0.4c0.2-0.1,0.4-0.1,0.7-0.2
		s0.6-0.1,0.9-0.1c0.3,0,0.6,0,0.9,0.1c0.3,0.1,0.5,0.2,0.6,0.4c0.3,0.3,0.2,0.6,0,0.8C159.7,17.8,159.3,17.9,158.8,17.9z
		 M158.2,8.5c-1.1,1-1.9,2.3-2.3,3.8c1.5,0.4,3.1,0.4,4.6,0c1.6-0.4,2.9-1.2,4-2.3c0.3-0.4,0.6-0.8,0.8-1.3c0.2-0.5,0.2-1-0.1-1.5
		c-0.2-0.3-0.4-0.6-0.6-0.7c-0.3-0.2-0.6-0.3-0.9-0.3c-0.3-0.1-0.7-0.1-1,0c-0.3,0-0.6,0.1-0.9,0.2c-0.7,0.2-1.3,0.5-1.9,0.9
		S158.7,8,158.2,8.5z"/>
	<path class="st0" d="M171.8,21.3c0.1-0.2,0.2-0.3,0.3-0.4c0.1-0.1,0.2-0.1,0.3,0c0.1,0,0.2,0.1,0.2,0.2c0,0.1,0,0.3,0,0.5
		c-0.6,1.7-1.5,3.1-2.6,4.1c-1.1,1-2.3,1.5-3.5,1.5c-0.6,0-1.1-0.1-1.6-0.3c-0.4-0.2-0.8-0.6-1-1.1c-0.2-0.5-0.3-1.1-0.2-1.8
		c0-0.7,0.2-1.6,0.6-2.6l1.5-4.3c0.1-0.4,0.2-0.8,0.2-1.2c0-0.4-0.1-0.8-0.3-1.1c-0.1-0.2-0.2-0.3-0.3-0.4c-0.1-0.1-0.2-0.2-0.3-0.4
		l-0.3-0.3c-0.1,0.4-0.3,0.9-0.5,1.6c-0.2,0.7-0.4,1.4-0.7,2.1c-0.2,0.8-0.5,1.5-0.8,2.3s-0.5,1.4-0.7,2c-0.1,0.3-0.2,0.5-0.4,0.6
		c-0.1,0.1-0.3,0.1-0.3,0.1c-0.1,0-0.2-0.2-0.2-0.3c0-0.2,0-0.4,0.1-0.6c0.6-1.5,1-2.9,1.4-4s0.7-2.1,0.9-2.9
		c0.3-0.9,0.5-1.7,0.6-2.4c0.6,0.4,1.2,0.9,1.8,1.3c0.5,0.4,1,0.8,1.5,1.2c0.5,0.4,0.9,0.9,1.2,1.3c0.4,0.6,0.6,1.2,0.7,1.7
		c0.1,0.5,0,1.1-0.3,1.9l-1.4,4.1c-0.3,0.8-0.4,1.4-0.3,1.8s0.3,0.5,0.6,0.5c0.2,0,0.4-0.1,0.7-0.2c0.3-0.1,0.6-0.4,1-0.7
		c0.3-0.3,0.7-0.8,1.1-1.4C171.2,22.8,171.5,22.1,171.8,21.3z"/>
	<path class="st0" d="M187.6,21.3c0.1-0.2,0.2-0.3,0.3-0.4c0.1-0.1,0.2-0.1,0.3,0s0.2,0.1,0.2,0.2s0.1,0.3,0,0.5
		c-0.6,1.7-1.5,3.1-2.6,4.1c-1.1,1-2.3,1.5-3.5,1.5c-0.9,0-1.5-0.2-2-0.6s-0.7-1.1-0.8-2c-0.5,0.7-1.2,1.3-1.9,1.8s-1.6,0.8-2.5,0.8
		c-1,0-1.8-0.3-2.4-1s-0.9-1.5-1-2.6s0-2.2,0.4-3.4c0.4-1.2,1-2.3,1.8-3.4s1.9-1.9,3.2-2.6s2.8-1,4.6-1c1.2,0,2.2,0.2,2.9,0.5
		c0.7,0.3,1.3,0.8,1.7,1.5c-0.5,1.4-0.9,2.6-1.3,3.7c-0.2,0.5-0.3,1-0.5,1.4c-0.2,0.5-0.3,0.9-0.4,1.3c-0.1,0.4-0.3,0.7-0.4,1
		c-0.1,0.3-0.2,0.5-0.2,0.6c-0.3,0.8-0.4,1.4-0.3,1.8c0.1,0.4,0.3,0.5,0.6,0.5c0.2,0,0.4-0.1,0.7-0.2s0.6-0.4,1-0.7
		c0.3-0.3,0.7-0.8,1.1-1.4C186.9,22.8,187.3,22.1,187.6,21.3z M182.3,14.9c0-0.1-0.2-0.2-0.3-0.4s-0.4-0.2-0.7-0.2
		c-0.7,0-1.3,0.3-1.9,0.8c-0.6,0.6-1.2,1.3-1.7,2.1s-0.9,1.8-1.3,2.8c-0.4,1-0.6,1.9-0.7,2.8c-0.1,0.8-0.2,1.6-0.1,2.1
		s0.3,0.8,0.8,0.8c0.3,0,0.5-0.1,0.8-0.2s0.5-0.4,0.8-0.7c0.2-0.3,0.5-0.6,0.7-0.9c0.2-0.4,0.4-0.7,0.6-1.1c0.4-0.8,0.9-1.8,1.3-2.9
		L182.3,14.9z"/>
	<path class="st0" d="M198.9,25.8c0.3,0,0.7-0.1,1.1-0.3c0.4-0.2,0.8-0.5,1.2-0.9s0.8-0.9,1.2-1.4s0.7-1.1,1-1.8
		c0.1-0.2,0.2-0.3,0.3-0.4s0.2-0.1,0.3,0c0.1,0,0.2,0.1,0.2,0.2c0,0.1,0,0.3,0,0.5c-0.2,0.6-0.6,1.3-1,1.9s-0.9,1.3-1.5,1.8
		c-0.6,0.5-1.2,1-1.9,1.4s-1.4,0.5-2.2,0.5c-0.6,0-1.2-0.1-1.6-0.4c-0.5-0.3-0.8-0.7-1-1.3c-0.2-0.6-0.3-1.3-0.2-2.2
		c0.1-0.8,0.3-1.8,0.8-3c0.8-1.9,1.3-3.3,1.5-4.1c0.2-0.8,0-1.3-0.5-1.4c-0.3-0.1-0.8,0.1-1.3,0.5c-0.5,0.4-1.1,1.1-1.8,2
		c-0.6,1-1.3,2.3-2.1,3.9c-0.8,1.6-1.5,3.6-2.3,6l0,0H189c-1,0-1.7-0.4-2.1-1.1c-0.4-0.7-0.4-1.7,0.1-3l3.4-9.8h0.4
		c0.4,0,0.7,0.1,1.1,0.3s0.6,0.4,0.8,0.7c0.2,0.3,0.3,0.6,0.4,1c0.1,0.4,0,0.7-0.1,1.1l-0.1,0.3c0.7-1,1.4-1.9,2.2-2.5
		c0.8-0.6,1.6-0.9,2.5-0.9c1.8,0,2.9,0.6,3.2,1.9s0,3.1-0.9,5.5c-0.7,1.8-1.1,3.1-1.2,3.9S198.5,25.8,198.9,25.8z"/>
	<path class="st0" d="M213.1,15c-0.3-0.6-0.7-1-1.4-1c-0.6,0-1.1,0.3-1.6,0.9c-0.5,0.6-1,1.3-1.4,2.2c-0.4,0.9-0.7,1.9-1,2.9
		c-0.2,1-0.4,2-0.4,2.9c0,0.9,0.1,1.6,0.4,2.2c0.3,0.6,0.7,0.9,1.3,0.9c1.1,0,2-0.4,3-1.2s1.8-2,2.6-3.7c0.1-0.2,0.2-0.3,0.3-0.3
		c0.1-0.1,0.2-0.1,0.3,0c0.1,0,0.2,0.1,0.2,0.2c0,0.1,0,0.3,0,0.4c-0.4,1-0.9,1.9-1.4,2.6c-0.5,0.7-1.1,1.3-1.7,1.8
		c-0.6,0.5-1.3,0.8-1.9,1.1c-0.7,0.2-1.3,0.3-2,0.3c-1.5,0-2.7-0.4-3.5-1.1c-0.8-0.7-1.3-1.6-1.5-2.7c-0.2-1.1-0.1-2.2,0.2-3.5
		s0.9-2.4,1.7-3.5c0.8-1.1,1.8-2,2.9-2.7c1.2-0.7,2.5-1.1,3.9-1.1c0.6,0,1.1,0.1,1.5,0.3s0.7,0.5,0.9,0.8c0.2,0.3,0.2,0.5,0.1,0.8
		c-0.1,0.2-0.2,0.4-0.4,0.6c-0.2,0.1-0.4,0.2-0.6,0.1C213.4,15.5,213.2,15.3,213.1,15z"/>
	<path class="st0" d="M224,13.2c1.5,0.1,2.6,0.6,3.4,1.3c0.7,0.8,1.2,1.7,1.3,2.8s0,2.2-0.4,3.5s-1.1,2.3-1.9,3.4
		c-0.8,1-1.9,1.8-3.1,2.5c-1.2,0.6-2.6,0.9-4,0.8c-1.5-0.1-2.6-0.5-3.3-1.3s-1.2-1.7-1.3-2.8c-0.1-1.1,0-2.2,0.4-3.5
		c0.4-1.2,1.1-2.3,1.9-3.4c0.8-1,1.9-1.8,3.1-2.5C221.2,13.4,222.5,13.1,224,13.2z M220.6,26.4c0.6-0.1,1.2-0.4,1.7-1
		c0.5-0.6,0.9-1.4,1.3-2.3c0.3-0.9,0.6-1.9,0.8-2.9c0.2-1,0.2-2,0.2-2.9c-0.1-0.9-0.2-1.6-0.6-2.2c-0.3-0.6-0.8-0.8-1.4-0.8
		c-0.6,0-1.2,0.4-1.7,1c-0.5,0.6-0.9,1.4-1.3,2.3c-0.3,0.9-0.6,1.9-0.8,2.9c-0.2,1-0.2,2-0.2,2.9c0.1,0.9,0.3,1.6,0.6,2.2
		C219.5,26.1,220,26.4,220.6,26.4z"/>
</g>
</svg>
