<?xml version="1.0" encoding="utf-8"?>
<!-- Generator: Adobe Illustrator 28.0.0, SVG Export Plug-In . SVG Version: 6.00 Build 0)  -->
<svg version="1.1" id="Capa_1" xmlns="http://www.w3.org/2000/svg" xmlns:xlink="http://www.w3.org/1999/xlink" x="0px" y="0px"
	 viewBox="0 0 266.6 128.8" style="enable-background:new 0 0 266.6 128.8;" xml:space="preserve">
<style type="text/css">
	.st0{fill-rule:evenodd;clip-rule:evenodd;fill:#FFFFFF;}
	.st1{fill:#FFFFFF;}
	.st2{fill:#FFFFFF;stroke:#FFFFFF;stroke-width:0.9557;stroke-linecap:round;stroke-linejoin:round;stroke-miterlimit:10;}
</style>
<path class="st0" d="M132.1,122.4c0.3-0.3,1.3-1.8,2.6-3.1c2.7-2.8,6.3-5.6,7.1-10.3c0.7-4.3-1-7.5-3.2-8.6
	c-3.9-2.1-5.7,2.5-6.5,3.6c-0.3-0.4-0.7-1.2-1-1.7c-0.3-0.5-0.9-1.1-1.4-1.5c-5-4-12.1,7-3,15.7l4.1,4.4
	C131.3,121.3,131.8,122,132.1,122.4L132.1,122.4L132.1,122.4z"/>
<path class="st0" d="M155.1,119.1c0.2-0.2,0.9-1.3,1.8-2.3c1.9-2,4.5-4,5.1-7.3c0.5-3.1-0.7-5.4-2.3-6.2c-2.8-1.5-4,1.8-4.7,2.5
	c-0.2-0.3-0.5-0.9-0.7-1.2c-0.2-0.4-0.6-0.8-1-1.1c-3.6-2.8-8.7,5-2.1,11.3l3,3.1C154.5,118.3,154.9,118.8,155.1,119.1L155.1,119.1
	L155.1,119.1z"/>
<path class="st0" d="M109.6,119.2c0.2-0.2,0.9-1.3,1.8-2.3c1.9-2,4.5-4,5.1-7.3c0.5-3.1-0.7-5.4-2.3-6.2c-2.8-1.5-4,1.8-4.7,2.5
	c-0.2-0.3-0.5-0.9-0.7-1.2c-0.2-0.4-0.6-0.8-1-1.1c-3.6-2.8-8.7,5-2.1,11.3l3,3.1C108.9,118.4,109.3,118.9,109.6,119.2L109.6,119.2
	L109.6,119.2z"/>
<path class="st1" d="M78.2,29H17.5c-0.6,0-1-0.6-1-1.1c0-0.6,0.5-1.1,1-1.1h60.7c0.6,0,1,0.6,1,1.1C79.3,28.5,78.9,29,78.2,29z"/>
<path class="st1" d="M253.2,29h-60.5c-0.6,0-1-0.6-1-1.1c0-0.6,0.5-1.1,1-1.1h60.5c0.6,0,1,0.6,1,1.1C254.2,28.5,253.9,29,253.2,29z
	"/>
<path class="st0" d="M59.7,106.4c-2.8,0.5-4.5,0.9-6.4,2.5c-3.4,3-1.3,10.2,6.6,4.9c1-0.7,1.6-1.3,2.5-2.1c0.9-0.9,1.3-1.6,2.2-2.5
	c2,0.7,3.7,1.7,6.7,2.7c1.2,0.3,2.4,0.7,3.7,1c0.8,0.2,3.3,0.6,3.8,0.9c-0.5,0.3-8.5,2.6-7.7,8.5c0.2,1.5,1.4,2.5,2.7,2.7
	c3.7,0.6,7.8-3.9,9.5-6.8c0.8-1.4,1-2.4,1.6-3.9c2.6-0.1,5.1,0,7.8-0.2c3.6-0.2,6,0,5.5-2.4c-1.2-0.6-4.6,0.2-6.3,0.3
	c-2.3,0.1-4.7,0.2-7.1,0.1c-0.6-3-3.6-9.2-6.2-10.5c-2.5-1.4-6.3,0.7-4.1,6.6c0.5,1.3,1,1.8,1.6,2.7c-4.2-0.5-8.7-3.2-11-3.8
	c-0.1-4-1.9-11.5-5.2-12.1C56.2,94.6,54.7,101,59.7,106.4L59.7,106.4L59.7,106.4L59.7,106.4z"/>
<path class="st0" d="M196.8,112.2c0.5-0.2,0.8-0.8,1.3-1.3c0.9-1,0.9-0.8,1.2-1.6c-2.1,0.3-4.5,1.8-6.8,1.9c0.3-0.8,0.9-1.4,1.5-2.6
	c2.2-5.7-1.2-8.2-4-6.8c-2.1,1-5.6,7.1-6.2,10.5c-2.4,0-4.7,0-7.1-0.1c-1.6-0.1-5.1-0.9-6.3-0.3c-0.5,1.7,0.3,1.8,1.7,1.9
	c4.6,0.6,7.4,0.3,11.4,0.6c0.9,1.8,1.6,4.5,4.1,6.9c1.5,1.4,3.8,4.1,7,3.8c3.6-0.5,4.5-6.1-1-9.6c-1.9-1.3-3.1-1.4-3.7-1.7
	C190.4,113.8,195.9,112.6,196.8,112.2L196.8,112.2L196.8,112.2L196.8,112.2z"/>
<path class="st0" d="M199.2,109.3c-0.2,0.8-0.2,0.7-1.2,1.6c-0.5,0.5-0.8,1-1.3,1.3c3-1,5.2-2.2,7.2-2.9c1.5,1.6,1.9,2.7,4.6,4.5
	c8.2,5.2,10-1.9,6.8-4.8c-1.6-1.5-3.8-2.3-6.5-2.5c1-1.5,2.5-2.5,3-5.7c0.5-2.9-0.5-5.7-3.1-5.4c-3.7,0.5-5.5,8.2-5.5,12.1
	L199.2,109.3L199.2,109.3L199.2,109.3L199.2,109.3z"/>
<g>
	<path class="st1" d="M86.7,10.4c-0.8,0.3-1.5,0.5-2.1,0.5c-0.3,0-0.4-0.2-0.4-0.5V9.8c0-0.2,0-0.4,0.1-0.5c0.1-0.1,0.3-0.2,0.6-0.4
		c0.4-0.2,1-0.6,1.8-1.2c0.7-0.6,1.5-1.4,2.2-2.4c0.5-0.8,0.9-1.2,1-1.3C90,4,90.1,3.9,90.4,3.9h1.1v21.4c0,0.2,0.2,0.4,0.5,0.6
		c0.3,0.1,0.4,0.3,0.5,0.4c0.1,0.2,0.1,0.6,0.1,1.2c0,0.3-0.2,0.4-0.5,0.4h-6.2c-0.3,0-0.4,0-0.5-0.1c-0.1-0.1-0.1-0.3-0.1-0.6
		c0-0.5,0-0.8,0.1-0.9c0-0.1,0.2-0.2,0.6-0.3c0.5-0.2,0.8-0.4,0.8-0.7V10.4z"/>
	<path class="st1" d="M105.4,19.4h1.1c0.3,0,0.5,0.1,0.6,0.2c0.1,0.1,0.1,0.3,0.1,0.6v0.9c0,0.3,0,0.4-0.1,0.5
		c-0.1,0.1-0.2,0.1-0.5,0.1h-1.2v2.8c0,0.7,0.3,1.1,0.8,1.4c0.3,0.2,0.4,0.4,0.4,0.8v0.7c0,0.2,0,0.4-0.1,0.4
		c-0.1,0.1-0.2,0.1-0.5,0.1h-5.7c-0.3,0-0.4-0.1-0.5-0.2c-0.1-0.1-0.1-0.5-0.1-1c0-0.4,0.1-0.6,0.4-0.8c0.3-0.2,0.5-0.5,0.5-0.9
		v-3.3h-5.3c-0.3,0-0.5,0-0.5-0.1c-0.1-0.1-0.1-0.2-0.1-0.5l0-1.7c0-0.2,0-0.3,0-0.4c0-0.1,0.2-0.5,0.6-1.1l7.6-13.3
		c0.1-0.2,0.3-0.4,0.5-0.5C103.6,4,104,4,104.5,4c0.5,0,0.8,0,0.9,0.1c0.1,0.1,0.1,0.2,0.1,0.5V19.4z M100.7,12.1l-4.1,7.2h4.1V12.1
		z"/>
	<path class="st1" d="M118.3,3.7h3.1l-10,24.5h-3.1L118.3,3.7z"/>
	<path class="st1" d="M128.7,4c1.1,0,2.2,0.5,3.2,1.5c1,1,1.7,2.4,2.2,4.2c0.5,1.8,0.7,3.8,0.7,6.3c0,4-0.6,7.1-1.8,9.1
		c-1.2,2.1-2.7,3.1-4.4,3.1c-1.7,0-3.1-1-4.3-3c-1.2-2-1.8-5-1.8-9c0-4,0.6-7.1,1.8-9.1C125.4,5,126.9,4,128.7,4z M129.5,7.8
		c0-0.7-0.1-1.2-0.2-1.5c-0.1-0.3-0.4-0.4-0.7-0.4c-0.7,0-1,0.6-1,1.9v17.1c0,1,0.3,1.4,0.9,1.4c0.3,0,0.6-0.1,0.7-0.4
		c0.2-0.3,0.3-0.6,0.3-1V7.8z"/>
	<path class="st1" d="M138.6,23.5h6.8c0.3,0,0.5-0.1,0.7-0.4c0.2-0.3,0.3-0.7,0.5-1.4c0.1-0.3,0.1-0.5,0.3-0.6
		c0.1-0.1,0.4-0.1,0.7-0.1c0.6,0,0.8,0.1,0.8,0.4c0,0.1,0,0.2,0,0.3c0,0.3-0.1,0.9-0.3,1.9c-0.2,1.1-0.3,2-0.5,2.9
		c-0.2,0.8-0.3,1.3-0.4,1.3c-0.1,0.1-0.3,0.1-0.6,0.1H136v-3.5c0-0.5,0.4-1.1,1.1-1.8c0.4-0.4,1.3-1.5,2.6-3.4
		c1.4-1.9,2.3-3.4,2.7-4.6c0.4-1.2,0.6-2.8,0.6-4.8c0-1.7-0.1-2.7-0.4-3.2c-0.3-0.5-0.7-0.7-1.3-0.7c-0.4,0-0.7,0.1-1,0.4
		c-0.2,0.3-0.4,0.6-0.4,1c0,0.2,0,0.5,0.1,0.9c0.1,0.4,0.1,0.9,0.1,1.3c0,0.9-0.2,1.6-0.6,2.1c-0.4,0.5-0.8,0.7-1.4,0.7
		c-0.6,0-1.1-0.3-1.5-0.8c-0.4-0.5-0.5-1.2-0.5-1.9c0-1.6,0.5-2.9,1.6-4c1.1-1.1,2.5-1.6,4.3-1.6c1.8,0,3.3,0.6,4.5,1.9
		c1.2,1.2,1.7,2.9,1.7,4.9c0,1.1-0.2,2.2-0.6,3.2c-0.4,1-1,1.9-1.7,2.7c-0.7,0.8-1.8,1.8-3.1,2.9C140.9,21.1,139.5,22.4,138.6,23.5z
		"/>
	<path class="st1" d="M159.4,3.7h3.1l-10,24.5h-3.1L159.4,3.7z"/>
	<path class="st1" d="M166.2,23.5h6.8c0.3,0,0.5-0.1,0.7-0.4c0.2-0.3,0.3-0.7,0.5-1.4c0.1-0.3,0.1-0.5,0.3-0.6
		c0.1-0.1,0.4-0.1,0.7-0.1c0.6,0,0.8,0.1,0.8,0.4c0,0.1,0,0.2,0,0.3c0,0.3-0.1,0.9-0.3,1.9c-0.2,1.1-0.3,2-0.5,2.9
		c-0.2,0.8-0.3,1.3-0.4,1.3c-0.1,0.1-0.3,0.1-0.6,0.1h-10.6v-3.5c0-0.5,0.4-1.1,1.1-1.8c0.4-0.4,1.3-1.5,2.6-3.4
		c1.4-1.9,2.3-3.4,2.7-4.6c0.4-1.2,0.6-2.8,0.6-4.8c0-1.7-0.1-2.7-0.4-3.2c-0.3-0.5-0.7-0.7-1.3-0.7c-0.4,0-0.7,0.1-1,0.4
		s-0.4,0.6-0.4,1c0,0.2,0,0.5,0.1,0.9c0.1,0.4,0.1,0.9,0.1,1.3c0,0.9-0.2,1.6-0.6,2.1c-0.4,0.5-0.8,0.7-1.4,0.7
		c-0.6,0-1.1-0.3-1.5-0.8c-0.4-0.5-0.5-1.2-0.5-1.9c0-1.6,0.5-2.9,1.6-4c1.1-1.1,2.5-1.6,4.3-1.6c1.8,0,3.3,0.6,4.5,1.9
		c1.2,1.2,1.7,2.9,1.7,4.9c0,1.1-0.2,2.2-0.6,3.2c-0.4,1-1,1.9-1.7,2.7c-0.7,0.8-1.8,1.8-3.1,2.9C168.5,21.1,167.1,22.4,166.2,23.5z
		"/>
	<path class="st1" d="M182.2,12c0.8-1,1.7-1.5,2.6-1.5c1.3,0,2.4,0.7,3.3,2.1c0.9,1.4,1.4,3.4,1.4,6c0,2.8-0.6,5.1-1.7,6.9
		c-1.1,1.8-2.6,2.7-4.5,2.7c-1.2,0-2.3-0.4-3.2-1.1c-0.9-0.7-1.6-1.9-2.2-3.6c-0.5-1.6-0.8-3.8-0.8-6.4c0-3.2,0.4-5.7,1.2-7.7
		c0.8-1.9,2-3.3,3.5-4.2s3.2-1.3,4.9-1.3c0.5,0,0.8,0,1,0.1c0.2,0.1,0.3,0.2,0.3,0.4c0,0.7,0,1.2-0.1,1.3c-0.1,0.1-0.3,0.2-0.7,0.2
		c-0.8,0-1.7,0.2-2.6,0.6c-0.9,0.4-1.5,1-1.9,1.8C182.3,9.2,182.2,10.4,182.2,12z M184.2,14.1c0-0.3-0.1-0.6-0.2-0.8
		c-0.2-0.2-0.4-0.3-0.7-0.3c-0.7,0-1,0.6-1,1.7v10.5c0,0.3,0.1,0.5,0.3,0.7c0.2,0.2,0.4,0.3,0.7,0.3c0.3,0,0.6-0.1,0.7-0.4
		c0.2-0.3,0.3-0.9,0.3-1.8V14.1z"/>
</g>
<g>
	<path class="st2" d="M29.7,47.9C24.8,66.1,12.5,81.4,2.9,76.6c-0.3-0.3-0.4-0.8,0-0.6c12.6,4.3,23.3-19.7,25.7-29.2
		c0.2-0.7,0.2-1.7,0.3-2.3c0,0,0-0.1,0-0.1c0.1-0.7,1.5,0.3,1.7,1.2c1,6.5,1.5,15.4,3.3,23.5c3-8,11-27.3,12.8-28.9
		c0.7-1,1.9,0.3,1.8,1.3c-0.6,7.3-1.1,12.9-1.1,18.8c0,1.2,0,2.3,0,3.5c0.3,9.3,1.6,16,4.8,17.2c0.3,0.1,0.3,0.6-0.2,0.6
		c-4.9,0-5.9-10.9-6.2-17.5c0-1.2-0.1-2.5-0.1-3.8c0-5.8,0.5-12.1,1-17.7c-2.1,3.7-10.2,22.7-12.2,28.8c0,1.2-0.9,2.3-1.4,1.8
		C31.6,64.5,30.3,56,29.7,47.9z"/>
	<path class="st2" d="M50.4,67.4c0-1,0.5-2.1,1.5-2.9c1.2-0.8,2.6-1.3,4.1-1.3c1.2,0,2.4,0.3,3.5,0.8h0l0.7-1.1
		c0.3-0.5,1.7,0.5,1.4,1.1c-0.2,0.7-0.6,1.6-0.7,2.4c0,0.8,0.2,1.7,0.9,2c2.2,0.5,5.9-1.9,7.4-3.8c0.7-0.8,1.4,0.4-1,3
		c-1.1,1.2-4,2.7-5.8,2.2c-1.4-0.4-2.5-1.3-3.1-3c-1.2,1.2-4,3.6-6.3,3.6c-0.6,0-1.1-0.1-1.5-0.5C50.8,69.3,50.4,68.4,50.4,67.4z
		 M58.8,65c-0.4-0.1-1-0.2-1.7-0.2c-2.1,0-5,0.9-5.5,3.1c-0.1,0.6,0.1,1.1,0.8,1.1C54.5,68.7,57.3,66.8,58.8,65z"/>
	<path class="st2" d="M69.2,62.9c0-0.3,0.4-0.3,0.9-0.1c0.4,0.2,0.6,0.7,0.6,1l0,1.8c1.1-1.5,4.3-4.2,6.6-3.8c1,0.2,1.6,1.2,1.3,1.6
		c-0.6,0.8-1.2,0.5-1.2,0.1l0-0.4c-2.1,0-5.7,2.8-6.7,6.1c-0.1,0.4-0.1,0.7-0.3,2c0,0.6-1.4,0-1.5-0.7C68.7,70,68.6,68.8,69.2,62.9z
		"/>
	<path class="st2" d="M80.3,65.9c0-1.5,0.3-2.9,0.7-3.7c0-0.2,0.5-0.3,1-0.1c0.5,0.2,0.7,0.6,0.7,0.8c-0.3,0.4-1.2,5.7-0.6,6.3
		c0.3,0.3,0.8,0.4,1.2,0.4c2.7,0,7.2-3.8,8.5-5.2c0.2-0.2,0.6,0.1,0.1,1.1c-0.8,1.6-4.7,5.4-7.7,5.5c-1.1,0-2.2-0.2-3.1-1.2
		C80.6,69,80.3,67.4,80.3,65.9z M81.5,59.3c0.5-0.7,2.6-2,3.4-2.6c0.4-0.3,1.8,0.6,1.4,1.2c-2.9,1.9-4,2.7-4.6,2.2
		C81.2,59.9,81.4,59.5,81.5,59.3z"/>
	<path class="st2" d="M89.8,67.4c0-1,0.5-2.1,1.5-2.9c1.2-0.8,2.6-1.3,4.1-1.3c1.2,0,2.4,0.3,3.5,0.8h0l0.7-1.1
		c0.3-0.5,1.7,0.5,1.4,1.1c-0.2,0.7-0.6,1.6-0.7,2.4c0,0.8,0.2,1.7,0.9,2c2.2,0.5,5.9-1.9,7.4-3.8c0.7-0.8,1.4,0.4-1,3
		c-1.1,1.2-4,2.7-5.8,2.2c-1.4-0.4-2.5-1.3-3.1-3c-1.2,1.2-4,3.6-6.3,3.6c-0.6,0-1.1-0.1-1.5-0.5C90.2,69.3,89.8,68.4,89.8,67.4z
		 M98.2,65c-0.4-0.1-1-0.2-1.7-0.2c-2.1,0-5,0.9-5.5,3.1c-0.1,0.6,0.1,1.1,0.8,1.1C93.9,68.7,96.7,66.8,98.2,65z"/>
	<path class="st2" d="M129.3,67.1c-1.2,1.8-3.2,3.7-4.6,3.7c-1.4,0-2.8-1.2-3.4-2.7c-0.2-0.7-0.4-1.5-0.4-2.3c0-0.7,0.1-1.3,0.3-1.9
		c0.2-0.5,0.4-1,0.9-1.1c0.3-0.1,0.7,0.1,1.1,0.5c0.3,0.4,0.3,0.8,0.1,0.9c-0.2,0-0.4,0.3-0.6,0.8c-0.1,0.5-0.2,1.1-0.3,1.7
		c0.1,0.8,0.2,2.1,0.9,2.6c1.8,1.1,5.6-4.4,5.7-5.9c0-0.1,0.1-0.1,0.1-0.2c-0.1,0,0,0,0-0.1c0-0.1,0.2-0.1,0.4-0.1
		c0.4,0,1.2,0.6,1.2,1.1c0,0.1,0.3,2,0.3,4.8V69l0,0c1.2-0.8,6.6-3.7,7.6-2.7c0.4,0.4,0.3,0.5,0,0.6c-1.7,0.6-4.6,2.3-6.4,3.4
		l-1.2,0.9l0,0.6l-0.1,4.4c-0.3,5.9-1.5,12.4-5.2,13.2c-1.1,0.2-2.8-0.5-4-1.8c-1.2-1.3-1.8-3-1.6-4.7c0.6-3.6,4.1-8.3,8.4-11.9
		l1.1-0.8L129.3,67.1z M129.5,72.4l-1,1c-3.5,3.5-6.4,7.3-6.9,10.4c-0.3,1.5,0.4,2.6,0.9,3.3c0.6,0.7,1.5,1,2,0.9
		C127.8,87.3,129.5,79,129.5,72.4z"/>
	<path class="st2" d="M151,46.2c3.6-1.6,9.8-4.1,15.5-6.1c0.1-1,0.3-1.8,0.5-2.3c0.2-0.1,0.6-0.1,1.1,0.2c0.4,0.2,0.6,0.7,0.5,0.9
		c-0.1,0.1-0.2,0.2-0.2,0.5c2.6-0.9,5-1.6,6.7-2.1c2.6-0.7,6.2-1.3,9.5-1.3c3.9,0,7.4,0.9,8,3.7c0.1,0.6-0.3,0.7-0.5,0.4
		c-1.1-1.9-3.6-2.8-7-2.8c-2.7,0-6.1,0.6-9.9,1.6c-1.9,0.6-4.4,1.3-7.2,2.3c-0.6,8.8-0.6,14.3-0.7,21.1c2.5,0,7.6-0.1,10.5-0.1h3.3
		c0.3,0,0.8,0.3,1.1,0.8c0.3,0.4,0.2,0.7-0.2,0.7c-1.7,0-3.3,0-4.8,0c-2.6,0-7.5,0-9.8,0.1l0.1,11.3c0.6,1.1,0.9,3.5,0.9,5.5
		c0,1.9-0.3,3.5-0.7,3.6c-0.3,0-0.8-0.4-1-0.8c0,0,0-0.1,0-0.1c-0.3-0.9-0.6-7.7-0.6-8.9c-0.3-0.5-0.5-1-0.8-1.4
		c-2.2-4.1-6.4-7.3-9.7-8.3h-0.1c-0.2,0.1-0.6,0-0.9-0.3c0,0,0,0,0-0.1c-0.1-0.1-0.2-0.1-0.2-0.2c-0.3-0.4-0.2-0.7,0-0.8
		c4.2-0.4,7.9-0.7,11.6-0.8c0-2.3,0-4.4,0-6.3c0-5.5,0.1-9.8,0.4-14.3c-5.7,2-12.2,4.5-16.5,6.7c-0.5,0.2-1.3-0.6-0.8-1.4L151,46.2z
		 M166,71.7l-0.1-7.9c-2.6,0.1-5.4,0.3-8.1,0.6C161.3,66.3,164.3,69.1,166,71.7z"/>
	<path class="st2" d="M186.5,62.9c0-0.3,0.4-0.3,0.9-0.1c0.4,0.2,0.6,0.7,0.6,1l0,1.8c1.1-1.5,4.3-4.2,6.6-3.8
		c1,0.2,1.6,1.2,1.3,1.6c-0.6,0.8-1.2,0.5-1.2,0.1l0-0.4c-2.1,0-5.7,2.8-6.7,6.1c-0.1,0.4-0.1,0.7-0.3,2c0,0.6-1.4,0-1.5-0.7
		C186,70,185.9,68.8,186.5,62.9z"/>
	<path class="st2" d="M196.8,67.4c0-1,0.5-2.1,1.5-2.9c1.2-0.8,2.6-1.3,4.1-1.3c1.2,0,2.4,0.3,3.5,0.8h0l0.7-1.1
		c0.3-0.5,1.7,0.5,1.4,1.1c-0.2,0.7-0.6,1.6-0.7,2.4c0,0.8,0.2,1.7,0.9,2c2.2,0.5,5.9-1.9,7.4-3.8c0.7-0.8,1.4,0.4-1,3
		c-1.1,1.2-4,2.7-5.8,2.2c-1.4-0.4-2.5-1.3-3.1-3c-1.2,1.2-4,3.6-6.3,3.6c-0.6,0-1.1-0.1-1.5-0.5C197.2,69.3,196.8,68.4,196.8,67.4z
		 M205.2,65c-0.4-0.1-1-0.2-1.7-0.2c-2.1,0-5,0.9-5.5,3.1c-0.1,0.6,0.1,1.1,0.8,1.1C200.9,68.7,203.7,66.8,205.2,65z"/>
	<path class="st2" d="M215.1,68.2l0.4-4.7c0-0.3,0.4-0.4,0.9-0.2c0.3,0.2,0.7,0.7,0.7,0.9l-0.1,1.6c1.5-1.2,4.6-2.9,7-2.6
		c0.8,0.1,1.6,0.9,1.6,1.6c0,0.8-0.5,2.6,0.1,3.5c0.4,0.4,0.9,0.5,1.5,0.5c2.7,0,6.4-3.7,7.8-4.5c0.2-0.1,0.3,0.9-0.3,1.8
		c-1,1.5-3.8,4-6.8,4c-1.2,0-2.6-0.6-3.4-1.8c-0.4-0.7-0.6-1.5-0.6-2.4c0-0.5,0-1,0.1-1.6c-3.2,0.4-6.4,2.6-7.3,4.6l0,1.1
		c0,0.6-1.5,0.2-1.5-0.6C215.1,69.2,215,68.8,215.1,68.2z"/>
	<path class="st2" d="M237.8,70c3.6-0.3,6.7-2.8,9.2-5.3c0.3-0.2,0.6,0.6,0.3,1.2c-0.7,1.4-3.5,5.1-8.8,5.5c-2.5,0-4.9-1.8-4.8-4.9
		c0-1.3,0.6-2.6,1.5-3.5c0.6-0.5,1.4-0.9,2.3-0.9c0.5,0,1,0.1,1.6,0.4c0.6,0.3,0.9,0.9,1,1.4c0,0.8-0.9,1.1-1.3,1.3
		c-0.4,0.2-0.8,0-0.5-0.6c0.1-0.2,0.3-0.6,0.3-1.1c-1.6-0.4-3.2,1.4-3.5,3.2C234.8,68.6,235.9,70,237.8,70z"/>
	<path class="st2" d="M252.6,65.8c0.2,0.6,0.2,1.3,0.1,2c-0.4,2.4-2.1,3.5-4.1,3.4c-1.6-0.1-2.7-1.6-2.9-2.9c-0.3-2,0.8-4.2,1.8-4.6
		c0.1,0,0.1,0,0.2,0c0.2-0.7,0.5-1.2,1.3-1.1c1.2,0.2,2.1,0.8,2.7,1.6c1.1,0.1,2.2,0.2,3.2,0.2c2,0,3.7-0.2,4.1-0.2
		c1.2,0,0.9,0.6-0.1,0.9C258,65.6,255.2,66,252.6,65.8z M247.2,68.2c0.2,1.4,0.7,1.9,1.5,1.8c1.9-0.1,2.8-2.8,2.1-4.5
		c-1-0.2-1.8-0.5-2.4-0.9l-0.1,0.1C247.8,65.3,247,66.9,247.2,68.2z"/>
</g>
</svg>
